# xmcd
# 
# Track frame offsets:
#     150
#     15068
#     33970
#     48168
#     67881
#     82091
#     102557
#     120411
#     138876
#     158566
#     175069
#     189469
#     207176
#     223973
#     240039
#     258704
#     275284
#     287682
#     303645
#     316490
# 
# Disc length: 4446
# 
# Revision: 0
# Processed by: cddbd v1.5.2PL0 Copyright (c) Steve Scherf et al.
# Submitted via: fre:ac v1.0.27
# 
DISCID=0d115c14
DTITLE=Various Artist - 1000 Km di Musica - le più belle canzoni italiane di sempre
DYEAR=0
DGENRE=
TTITLE0=Pupo - Gelato al cioccolato
TTITLE1=Spagna - Gente come noi
TTITLE2=Ornella Vanoni - Io che amo solo te
TTITLE3=Tricarico - Vita tranquilla
TTITLE4=Bruno Lauzi - Amore caro, amore bello
TTITLE5=Rino Gaetano - Ma il cielo è sempre più blu
TTITLE6=Ornella Vanoni - Noi, Le Donne Noi
TTITLE7=Edoardo Bennato - Salviamo Il Salvabile
TTITLE8=Enzo Jannacci - Se me lo dicevi prima
TTITLE9=Fiorello - Si o no (Please don't go)
TTITLE10=Nicola di Bari - La prima cosa bella
TTITLE11=Nada - Il cuore e' uno zingaro
TTITLE12=Pierangelo Bertoli - Spunta La Luna Dal Monte
TTITLE13=Maurizio Vandelli - Mercante Senza Fiori
TTITLE14=Alunni del sole - 'A canzuncella
TTITLE15=Mino Reitano - Era il tempo delle more
TTITLE16=Stefano Rosso - Una storia disonesta
TTITLE17=Donatello - Malattia D'Amore
TTITLE18=I nuovi angeli - Color cioccolata
TTITLE19=I ragazzi italiani - Vero amore
EXTD=
EXTT0=
EXTT1=
EXTT2=
EXTT3=
EXTT4=
EXTT5=
EXTT6=
EXTT7=
EXTT8=
EXTT9=
EXTT10=
EXTT11=
EXTT12=
EXTT13=
EXTT14=
EXTT15=
EXTT16=
EXTT17=
EXTT18=
EXTT19=
PLAYORDER=
